<?xml version="1.0" standalone="no"?>
<!DOCTYPE svg PUBLIC "-//W3C//DTD SVG 20010904//EN"
 "http://www.w3.org/TR/2001/REC-SVG-20010904/DTD/svg10.dtd">
<svg version="1.0" xmlns="http://www.w3.org/2000/svg"
 width="128.000000pt" height="128.000000pt" viewBox="0 0 128.000000 128.000000"
 preserveAspectRatio="xMidYMid meet">

<g transform="translate(0.000000,128.000000) scale(0.100000,-0.100000)"
fill="#000000" stroke="none">
<path d="M0 1035 c0 -157 4 -245 10 -245 13 0 13 -87 0 -95 -17 -11 -12 -382
5 -399 12 -11 12 -16 0 -32 -11 -14 -14 -52 -15 -141 l0 -123 640 0 640 0 0
50 0 51 -37 -7 c-21 -4 -43 -10 -49 -15 -6 -5 -13 -6 -16 -4 -3 3 -13 -9 -21
-27 -9 -18 -17 -27 -17 -20 0 14 -30 17 -30 2 0 -5 -4 -10 -10 -10 -5 0 -10 6
-10 14 0 8 -6 16 -12 19 -10 3 -10 7 -1 19 7 8 14 28 15 44 1 16 10 38 20 49
46 51 115 143 127 170 36 79 50 229 30 323 -19 86 -47 113 -47 45 0 -87 -4
-105 -44 -190 -6 -12 -20 -23 -32 -25 -17 -2 -21 -11 -23 -42 -1 -32 -8 -46
-35 -68 -33 -28 -131 -78 -152 -78 -7 0 -30 -10 -51 -22 -29 -15 -59 -21 -105
-22 -41 -1 -81 -8 -107 -20 -38 -17 -43 -17 -64 -2 -13 9 -32 16 -42 16 -15 0
-18 -5 -13 -25 6 -22 3 -25 -18 -25 -14 0 -27 4 -31 9 -3 5 -18 12 -34 16 -16
3 -42 19 -58 34 -38 36 -71 54 -163 87 -41 15 -83 34 -93 43 -63 54 -102 162
-113 314 -6 75 -4 94 16 148 19 50 32 68 68 93 65 46 109 88 113 110 2 11 16
26 30 35 14 9 43 29 65 44 166 120 191 130 331 135 67 2 130 1 140 -3 10 -5
26 -7 35 -6 10 1 28 -7 40 -18 12 -12 30 -21 40 -21 10 0 18 -7 18 -15 0 -8 4
-15 10 -15 5 0 20 -11 34 -25 14 -14 32 -25 41 -25 8 0 15 -4 15 -9 0 -5 23
-31 50 -57 28 -26 50 -53 50 -61 0 -7 8 -13 18 -13 17 0 42 -33 74 -99 12 -25
15 -49 11 -88 -5 -49 -4 -53 16 -53 21 0 21 1 21 260 l0 260 -640 0 -640 0 0
-245z"/>
<path d="M348 1064 c-58 -18 -81 -48 -76 -100 4 -51 38 -74 109 -77 29 -1 70
2 90 6 32 7 37 12 42 43 8 47 -22 108 -63 129 -35 18 -41 18 -102 -1z"/>
<path d="M903 1039 c-47 -14 -83 -62 -83 -113 0 -54 21 -66 111 -69 77 -2 119
18 119 58 0 13 7 31 16 39 14 15 13 19 -17 44 -17 15 -37 30 -43 33 -22 13
-72 16 -103 8z m-5 -51 c-7 -13 -11 -27 -10 -31 1 -5 -2 -6 -8 -2 -6 3 -9 9
-7 13 2 4 7 15 10 25 4 9 11 17 17 17 7 0 6 -8 -2 -22z m128 -62 c-10 -39 -21
-31 -21 14 -1 35 1 38 13 26 9 -9 12 -24 8 -40z"/>
<path d="M588 709 c-26 -15 -22 -23 18 -38 46 -17 86 -21 99 -11 6 4 21 10 34
12 26 3 50 32 38 44 -4 4 -12 3 -18 -3 -6 -6 -26 -9 -45 -6 -29 5 -34 3 -34
-15 0 -32 -27 -35 -42 -5 -15 31 -27 36 -50 22z"/>
<path d="M948 624 c-16 -8 -28 -21 -28 -28 0 -7 -18 -29 -40 -48 -38 -35 -41
-36 -107 -31 -37 2 -98 11 -134 20 -53 12 -80 13 -132 5 -76 -12 -101 -8 -140
25 -31 25 -52 29 -63 11 -10 -15 60 -78 86 -78 11 0 43 -11 70 -25 57 -29 80
-32 80 -9 0 12 6 15 23 10 12 -3 48 -6 81 -6 46 0 57 -3 53 -14 -5 -13 24 -30
45 -27 4 0 19 -4 34 -9 17 -7 24 -15 20 -25 -7 -19 12 -19 56 -1 33 14 87 85
102 134 4 12 11 22 16 22 15 0 41 51 35 70 -7 24 -20 24 -57 4z"/>
<path d="M795 560 c3 -5 8 -10 11 -10 2 0 4 5 4 10 0 6 -5 10 -11 10 -5 0 -7
-4 -4 -10z"/>
</g>
</svg>
